<svg xmlns="http://www.w3.org/2000/svg" xmlns:xlink="http://www.w3.org/1999/xlink" width="464" height="412" viewBox="0 0 464 412"><defs><clipPath id="a"><rect width="80" height="40" transform="translate(0 0)" fill="#fff"/></clipPath><clipPath id="c"><rect width="30" height="47.847" transform="translate(0 0)" fill="#fff"/></clipPath><clipPath id="e"><rect width="26" height="81" fill="#fff"/></clipPath><clipPath id="f"><rect width="46" height="23" fill="#fff"/></clipPath></defs><g transform="translate(-230 -207)"><g transform="translate(115 -56.852)"><g transform="translate(217.352 303.852) rotate(-30)"><g clip-path="url(#a)"><g transform="translate(0 0)" fill="none" stroke="#000" stroke-width="6"><circle cx="40" cy="40" r="40" stroke="none"/><circle cx="40" cy="40" r="37" fill="none"/></g></g><line x2="74" transform="translate(3 40)" fill="none" stroke="#000" stroke-linecap="round" stroke-width="6"/></g><g transform="translate(389.366 263.852) rotate(30)"><g clip-path="url(#a)"><g transform="translate(0 0)" fill="none" stroke="#000" stroke-width="6"><circle cx="40" cy="40" r="40" stroke="none"/><circle cx="40" cy="40" r="37" fill="none"/></g></g><line x2="74" transform="translate(3 40)" fill="none" stroke="#000" stroke-linecap="round" stroke-width="6"/></g><g transform="translate(227.869 576.852) rotate(-140)"><g clip-path="url(#c)"><g transform="translate(0.243 0.695)" fill="none" stroke="#000" stroke-width="6"><ellipse cx="15" cy="47.289" rx="15" ry="47.289" stroke="none"/><ellipse cx="15" cy="47.289" rx="12" ry="44.289" fill="none"/></g></g><line x2="24" transform="translate(3.243 48.413)" fill="none" stroke="#000" stroke-linecap="round" stroke-width="6"/></g><g transform="translate(471.112 557.568) rotate(140)"><g clip-path="url(#c)"><g transform="translate(0.243 0.695)" fill="none" stroke="#000" stroke-width="6"><ellipse cx="15" cy="47.289" rx="15" ry="47.289" stroke="none"/><ellipse cx="15" cy="47.289" rx="12" ry="44.289" fill="none"/></g></g><line x2="24" transform="translate(3.243 48.413)" fill="none" stroke="#000" stroke-linecap="round" stroke-width="6"/></g><g transform="translate(170 351.049)"><g transform="translate(2)" clip-path="url(#e)"><g transform="translate(-254 -59)" fill="none" stroke="#000" stroke-width="6"><circle cx="140" cy="140" r="140" stroke="none"/><circle cx="140" cy="140" r="137" fill="none"/></g></g><line x2="25" transform="translate(0 81)" fill="none" stroke="#000" stroke-linecap="round" stroke-width="6"/><line y1="158" transform="translate(0 2)" fill="none" stroke="#000" stroke-linecap="round" stroke-width="6"/></g><g transform="translate(478 353.05)"><g transform="translate(0 30)" clip-path="url(#f)"><g transform="translate(0 -23)" fill="none" stroke="#000" stroke-width="6"><circle cx="23" cy="23" r="23" stroke="none"/><circle cx="23" cy="23" r="20" fill="none"/></g></g><line y1="158" transform="translate(23)" fill="none" stroke="#000" stroke-linecap="round" stroke-width="6"/><line y1="30" transform="translate(43)" fill="none" stroke="#000" stroke-linecap="round" stroke-width="6"/><line y1="30" transform="translate(3)" fill="none" stroke="#000" stroke-linecap="round" stroke-width="6"/></g><g transform="translate(218 312.087)" fill="none" stroke="#000" stroke-width="6"><circle cx="120" cy="120" r="120" stroke="none"/><circle cx="120" cy="120" r="117" fill="none"/></g><circle cx="90" cy="90" r="90" transform="translate(248 342.051)" fill="#c98fe9"/><g transform="translate(258 352.05)" fill="none" stroke="#000" stroke-width="6"><circle cx="80" cy="80" r="80" stroke="none"/><circle cx="80" cy="80" r="77" fill="none"/></g><g transform="translate(328 422.047)" fill="none" stroke="#000" stroke-width="6"><circle cx="10" cy="10" r="10" stroke="none"/><circle cx="10" cy="10" r="7" fill="none"/></g><line y1="23" transform="translate(338 401.041)" fill="none" stroke="#000" stroke-linecap="round" stroke-width="6"/><line y1="35" x2="35" transform="translate(344 391.04)" fill="none" stroke="#000" stroke-linecap="round" stroke-width="6"/><line y1="15" transform="translate(338 367.03)" fill="none" stroke="#000" stroke-linecap="round" stroke-width="6"/><line y1="15" transform="translate(338 482.064)" fill="none" stroke="#000" stroke-linecap="round" stroke-width="6"/><line y1="15" transform="translate(403 432.047) rotate(90)" fill="none" stroke="#000" stroke-linecap="round" stroke-width="6"/><line y1="15" transform="translate(288 432.047) rotate(90)" fill="none" stroke="#000" stroke-linecap="round" stroke-width="6"/><line y1="15" transform="translate(338 299)" fill="none" stroke="#000" stroke-linecap="round" stroke-width="6"/><g transform="translate(328 279)" fill="none" stroke="#000" stroke-width="6"><circle cx="10" cy="10" r="10" stroke="none"/><circle cx="10" cy="10" r="7" fill="none"/></g></g><text transform="translate(231 601)" fill="#c98fe9" font-size="86" font-family="ArialRoundedMTBold, Arial Rounded MT" letter-spacing="0.02em"><tspan x="0" y="0">food alarm</tspan></text></g></svg>